Source-HROTn_VROTn.ufo
<glyph name="dollar" format="2">
  <advance width="382"/>
  <unicode hex="0024"/>
  <outline>
    <contour>
      <point x="-69" y="265" type="line"/>
      <point x="-46" y="256"/>
      <point x="-17" y="251"/>
      <point x="13" y="251" type="curve"/>
      <point x="13" y="251"/>
      <point x="13" y="251"/>
      <point x="13" y="251" type="curve"/>
      <point x="87" y="251"/>
      <point x="155" y="280"/>
      <point x="193" y="334" type="curve" smooth="yes"/>
      <point x="193" y="334"/>
      <point x="193" y="334"/>
      <point x="193" y="334" type="curve" smooth="yes"/>
      <point x="226" y="380"/>
      <point x="191" y="399"/>
      <point x="158" y="420" type="curve" smooth="yes"/>
      <point x="158" y="420"/>
      <point x="158" y="420"/>
      <point x="158" y="420" type="curve" smooth="yes"/>
      <point x="116" y="445"/>
      <point x="78" y="474"/>
      <point x="117" y="531" type="curve" smooth="yes"/>
      <point x="117" y="531"/>
      <point x="117" y="531"/>
      <point x="117" y="531" type="curve" smooth="yes"/>
      <point x="157" y="586"/>
      <point x="230" y="617"/>
      <point x="296" y="617" type="curve"/>
      <point x="296" y="617"/>
      <point x="296" y="617"/>
      <point x="296" y="617" type="curve"/>
      <point x="332" y="617"/>
      <point x="358" y="612"/>
      <point x="380" y="602" type="curve"/>
      <point x="374" y="588" type="line"/>
      <point x="354" y="596"/>
      <point x="330" y="601"/>
      <point x="296" y="601" type="curve"/>
      <point x="296" y="601"/>
      <point x="296" y="601"/>
      <point x="296" y="601" type="curve"/>
      <point x="236" y="601"/>
      <point x="167" y="572"/>
      <point x="131" y="521" type="curve" smooth="yes"/>
      <point x="130" y="521"/>
      <point x="131" y="521"/>
      <point x="131" y="521" type="curve" smooth="yes"/>
      <point x="98" y="474"/>
      <point x="132" y="455"/>
      <point x="166" y="434" type="curve" smooth="yes"/>
      <point x="166" y="434"/>
      <point x="166" y="434"/>
      <point x="166" y="434" type="curve" smooth="yes"/>
      <point x="207" y="407"/>
      <point x="246" y="380"/>
      <point x="207" y="324" type="curve" smooth="yes"/>
      <point x="207" y="324"/>
      <point x="207" y="324"/>
      <point x="207" y="324" type="curve" smooth="yes"/>
      <point x="165" y="266"/>
      <point x="93" y="235"/>
      <point x="13" y="235" type="curve"/>
      <point x="13" y="235"/>
      <point x="13" y="235"/>
      <point x="13" y="235" type="curve"/>
      <point x="-19" y="235"/>
      <point x="-50" y="240"/>
      <point x="-75" y="251" type="curve"/>
    </contour>
    <contour>
      <point x="290" y="614" type="line"/>
      <point x="350" y="692" type="line"/>
      <point x="362" y="682" type="line"/>
      <point x="302" y="604" type="line"/>
    </contour>
    <contour>
      <point x="-57" y="164" type="line"/>
      <point x="7" y="248" type="line"/>
      <point x="19" y="238" type="line"/>
      <point x="-45" y="154" type="line"/>
    </contour>
    <contour>
      <point x="497" y="556" type="line"/>
      <point x="375" y="587" type="line" smooth="yes"/>
      <point x="369" y="589"/>
      <point x="383" y="603"/>
      <point x="385" y="597" type="curve" smooth="yes"/>
      <point x="425" y="450" type="line"/>
      <point x="409" y="446" type="line"/>
      <point x="369" y="593" type="line" smooth="yes"/>
      <point x="368" y="599"/>
      <point x="373" y="604"/>
      <point x="379" y="603" type="curve" smooth="yes"/>
      <point x="501" y="572" type="line"/>
    </contour>
    <contour>
      <point x="-102" y="149" type="line"/>
      <point x="-80" y="260" type="line" smooth="yes"/>
      <point x="-79" y="263"/>
      <point x="-76" y="266"/>
      <point x="-73" y="266" type="curve" smooth="yes"/>
      <point x="-12" y="273" type="line"/>
      <point x="-10" y="257" type="line"/>
      <point x="-71" y="250" type="line" smooth="yes"/>
      <point x="-75" y="250"/>
      <point x="-63" y="260"/>
      <point x="-64" y="256" type="curve" smooth="yes"/>
      <point x="-86" y="145" type="line"/>
    </contour>
    <contour>
      <point x="389" y="653" type="line"/>
      <point x="351" y="680" type="line" smooth="yes"/>
      <point x="344" y="686"/>
      <point x="349" y="697"/>
      <point x="358" y="695" type="curve" smooth="yes"/>
      <point x="487" y="668" type="line"/>
      <point x="483" y="652" type="line"/>
      <point x="354" y="679" type="line" smooth="yes"/>
      <point x="346" y="681"/>
      <point x="354" y="699"/>
      <point x="361" y="694" type="curve" smooth="yes"/>
      <point x="399" y="667" type="line"/>
    </contour>
    <contour>
      <point x="3" y="41" type="line"/>
      <point x="-58" y="155" type="line" smooth="yes"/>
      <point x="-61" y="162"/>
      <point x="-41" y="164"/>
      <point x="-43" y="157" type="curve" smooth="yes"/>
      <point x="-73" y="43" type="line"/>
      <point x="-89" y="47" type="line"/>
      <point x="-59" y="161" type="line" smooth="yes"/>
      <point x="-57" y="168"/>
      <point x="-47" y="169"/>
      <point x="-44" y="163" type="curve" smooth="yes"/>
      <point x="17" y="49" type="line"/>
    </contour>
    <contour>
      <point x="326" y="571" type="line"/>
      <point x="291" y="603" type="line" smooth="yes"/>
      <point x="285" y="609"/>
      <point x="290" y="619"/>
      <point x="298" y="617" type="curve" smooth="yes"/>
      <point x="425" y="589" type="line"/>
      <point x="421" y="573" type="line"/>
      <point x="294" y="601" type="line" smooth="yes"/>
      <point x="286" y="603"/>
      <point x="295" y="620"/>
      <point x="301" y="615" type="curve" smooth="yes"/>
      <point x="336" y="583" type="line"/>
    </contour>
    <contour>
      <point x="68" y="126" type="line"/>
      <point x="6" y="239" type="line" smooth="yes"/>
      <point x="2" y="246"/>
      <point x="22" y="248"/>
      <point x="21" y="241" type="curve" smooth="yes"/>
      <point x="-6" y="128" type="line"/>
      <point x="-22" y="132" type="line"/>
      <point x="5" y="245" type="line" smooth="yes"/>
      <point x="7" y="252"/>
      <point x="16" y="253"/>
      <point x="20" y="247" type="curve" smooth="yes"/>
      <point x="82" y="134" type="line"/>
    </contour>
  </outline>
</glyph>
<glyph name="six" format="2">
  <advance width="404"/>
  <unicode hex="0036"/>
  <outline>
    <contour>
      <point x="-34" y="231" type="line"/>
      <point x="-50" y="256"/>
      <point x="-44" y="294"/>
      <point x="-10" y="343" type="curve" smooth="yes"/>
      <point x="-10" y="343"/>
      <point x="-10" y="343"/>
      <point x="-10" y="343" type="curve" smooth="yes"/>
      <point x="41" y="415"/>
      <point x="127" y="463"/>
      <point x="203" y="463" type="curve"/>
      <point x="203" y="463"/>
      <point x="203" y="463"/>
      <point x="203" y="463" type="curve"/>
      <point x="268" y="463"/>
      <point x="297" y="417"/>
      <point x="240" y="334" type="curve" smooth="yes"/>
      <point x="240" y="334"/>
      <point x="240" y="334"/>
      <point x="239" y="334" type="curve" smooth="yes"/>
      <point x="189" y="264"/>
      <point x="100" y="209"/>
      <point x="24" y="209" type="curve"/>
      <point x="24" y="209"/>
      <point x="24" y="209"/>
      <point x="24" y="209" type="curve"/>
      <point x="-55" y="209"/>
      <point x="-77" y="273"/>
      <point x="18" y="408" type="curve" smooth="yes"/>
      <point x="18" y="408"/>
      <point x="18" y="408"/>
      <point x="18" y="408" type="curve" smooth="yes"/>
      <point x="137" y="578"/>
      <point x="247" y="638"/>
      <point x="344" y="638" type="curve"/>
      <point x="344" y="638"/>
      <point x="344" y="638"/>
      <point x="344" y="638" type="curve"/>
      <point x="368" y="638"/>
      <point x="390" y="634"/>
      <point x="410" y="624" type="curve"/>
      <point x="404" y="610" type="line"/>
      <point x="386" y="618"/>
      <point x="366" y="622"/>
      <point x="344" y="622" type="curve"/>
      <point x="344" y="622"/>
      <point x="344" y="622"/>
      <point x="344" y="622" type="curve"/>
      <point x="251" y="622"/>
      <point x="147" y="564"/>
      <point x="32" y="398" type="curve" smooth="yes"/>
      <point x="32" y="398"/>
      <point x="32" y="398"/>
      <point x="32" y="398" type="curve" smooth="yes"/>
      <point x="-51" y="282"/>
      <point x="-45" y="225"/>
      <point x="24" y="225" type="curve"/>
      <point x="24" y="225"/>
      <point x="24" y="225"/>
      <point x="24" y="225" type="curve"/>
      <point x="96" y="225"/>
      <point x="179" y="278"/>
      <point x="227" y="344" type="curve" smooth="yes"/>
      <point x="227" y="344"/>
      <point x="226" y="344"/>
      <point x="226" y="344" type="curve" smooth="yes"/>
      <point x="275" y="413"/>
      <point x="258" y="447"/>
      <point x="203" y="447" type="curve"/>
      <point x="203" y="447"/>
      <point x="203" y="447"/>
      <point x="203" y="447" type="curve"/>
      <point x="131" y="447"/>
      <point x="51" y="401"/>
      <point x="4" y="333" type="curve" smooth="yes"/>
      <point x="4" y="333"/>
      <point x="4" y="333"/>
      <point x="4" y="333" type="curve" smooth="yes"/>
      <point x="-24" y="294"/>
      <point x="-34" y="260"/>
      <point x="-20" y="241" type="curve"/>
    </contour>
    <contour>
      <point x="173" y="384" type="line"/>
      <point x="97" y="371"/>
      <point x="14" y="342"/>
      <point x="-27" y="280" type="curve"/>
      <point x="-41" y="288" type="line"/>
      <point x="4" y="354"/>
      <point x="89" y="387"/>
      <point x="171" y="400" type="curve"/>
    </contour>
    <contour>
      <point x="526" y="577" type="line"/>
      <point x="405" y="609" type="line" smooth="yes"/>
      <point x="399" y="611"/>
      <point x="413" y="625"/>
      <point x="415" y="619" type="curve" smooth="yes"/>
      <point x="455" y="472" type="line"/>
      <point x="439" y="468" type="line"/>
      <point x="399" y="615" type="line" smooth="yes"/>
      <point x="398" y="621"/>
      <point x="403" y="626"/>
      <point x="409" y="625" type="curve" smooth="yes"/>
      <point x="530" y="593" type="line"/>
    </contour>
  </outline>
</glyph>
<glyph name="colon" format="2">
  <advance width="191"/>
  <unicode hex="003A"/>
  <outline>
    <contour>
      <point x="-39" y="222" type="line"/>
      <point x="-72" y="237" type="line" smooth="yes"/>
      <point x="-79" y="240"/>
      <point x="-65" y="254"/>
      <point x="-62" y="248" type="curve" smooth="yes"/>
      <point x="4" y="120" type="line"/>
      <point x="-10" y="112" type="line"/>
      <point x="-76" y="240" type="line" smooth="yes"/>
      <point x="-80" y="247"/>
      <point x="-73" y="254"/>
      <point x="-66" y="251" type="curve" smooth="yes"/>
      <point x="-33" y="236" type="line"/>
    </contour>
    <contour>
      <point x="-124" y="119" type="line"/>
      <point x="-77" y="247" type="line" smooth="yes"/>
      <point x="-75" y="250"/>
      <point x="-72" y="252"/>
      <point x="-68" y="252" type="curve" smooth="yes"/>
      <point x="79" y="237" type="line"/>
      <point x="77" y="221" type="line"/>
      <point x="-70" y="236" type="line" smooth="yes"/>
      <point x="-73" y="236"/>
      <point x="-60" y="245"/>
      <point x="-61" y="241" type="curve" smooth="yes"/>
      <point x="-108" y="113" type="line"/>
    </contour>
    <contour>
      <point x="142" y="478" type="line"/>
      <point x="109" y="493" type="line" smooth="yes"/>
      <point x="102" y="496"/>
      <point x="116" y="510"/>
      <point x="119" y="504" type="curve" smooth="yes"/>
      <point x="185" y="376" type="line"/>
      <point x="171" y="368" type="line"/>
      <point x="105" y="496" type="line" smooth="yes"/>
      <point x="101" y="503"/>
      <point x="108" y="510"/>
      <point x="115" y="507" type="curve" smooth="yes"/>
      <point x="148" y="492" type="line"/>
    </contour>
    <contour>
      <point x="57" y="375" type="line"/>
      <point x="104" y="503" type="line" smooth="yes"/>
      <point x="106" y="506"/>
      <point x="109" y="508"/>
      <point x="113" y="508" type="curve" smooth="yes"/>
      <point x="260" y="493" type="line"/>
      <point x="258" y="477" type="line"/>
      <point x="111" y="492" type="line" smooth="yes"/>
      <point x="108" y="492"/>
      <point x="121" y="501"/>
      <point x="120" y="497" type="curve" smooth="yes"/>
      <point x="73" y="369" type="line"/>
    </contour>
  </outline>
</glyph>
<glyph name="C" format="2">
  <advance width="432"/>
  <unicode hex="0043"/>
  <outline>
    <contour>
      <point x="440" y="609" type="line"/>
      <point x="423" y="617"/>
      <point x="398" y="622"/>
      <point x="374" y="622" type="curve"/>
      <point x="374" y="622"/>
      <point x="374" y="622"/>
      <point x="374" y="622" type="curve"/>
      <point x="263" y="622"/>
      <point x="136" y="541"/>
      <point x="52" y="421" type="curve" smooth="yes"/>
      <point x="52" y="421"/>
      <point x="52" y="421"/>
      <point x="52" y="421" type="curve" smooth="yes"/>
      <point x="-31" y="306"/>
      <point x="-20" y="231"/>
      <point x="86" y="231" type="curve"/>
      <point x="86" y="231"/>
      <point x="86" y="231"/>
      <point x="86" y="231" type="curve"/>
      <point x="110" y="231"/>
      <point x="145" y="236"/>
      <point x="174" y="245" type="curve"/>
      <point x="178" y="229" type="line"/>
      <point x="149" y="220"/>
      <point x="112" y="215"/>
      <point x="86" y="215" type="curve"/>
      <point x="86" y="215"/>
      <point x="86" y="215"/>
      <point x="86" y="215" type="curve"/>
      <point x="-32" y="215"/>
      <point x="-53" y="302"/>
      <point x="38" y="431" type="curve" smooth="yes"/>
      <point x="38" y="431"/>
      <point x="38" y="431"/>
      <point x="38" y="431" type="curve" smooth="yes"/>
      <point x="126" y="555"/>
      <point x="259" y="638"/>
      <point x="374" y="638" type="curve"/>
      <point x="374" y="638"/>
      <point x="374" y="638"/>
      <point x="374" y="638" type="curve"/>
      <point x="400" y="638"/>
      <point x="429" y="633"/>
      <point x="448" y="623" type="curve"/>
    </contour>
    <contour>
      <point x="561" y="573" type="line"/>
      <point x="442" y="608" type="line" smooth="yes"/>
      <point x="436" y="610"/>
      <point x="450" y="624"/>
      <point x="452" y="618" type="curve" smooth="yes"/>
      <point x="487" y="464" type="line"/>
      <point x="471" y="460" type="line"/>
      <point x="436" y="614" type="line" smooth="yes"/>
      <point x="435" y="620"/>
      <point x="440" y="625"/>
      <point x="446" y="624" type="curve" smooth="yes"/>
      <point x="565" y="589" type="line"/>
    </contour>
    <contour>
      <point x="330" y="242" type="line"/>
      <point x="177" y="229" type="line" smooth="yes"/>
      <point x="171" y="229"/>
      <point x="179" y="246"/>
      <point x="183" y="241" type="curve" smooth="yes"/>
      <point x="252" y="135" type="line"/>
      <point x="238" y="127" type="line"/>
      <point x="169" y="233" type="line" smooth="yes"/>
      <point x="166" y="238"/>
      <point x="169" y="244"/>
      <point x="175" y="245" type="curve" smooth="yes"/>
      <point x="328" y="258" type="line"/>
    </contour>
  </outline>
</glyph>
<glyph name="F" format="2">
  <advance width="369"/>
  <unicode hex="0046"/>
  <outline>
    <contour>
      <point x="234" y="412" type="line"/>
      <point x="71" y="412" type="line"/>
      <point x="71" y="428" type="line"/>
      <point x="234" y="428" type="line"/>
    </contour>
    <contour>
      <point x="219" y="593" type="line"/>
      <point x="208" y="620" type="line" smooth="yes"/>
      <point x="204" y="629"/>
      <point x="217" y="636"/>
      <point x="222" y="627" type="curve" smooth="yes"/>
      <point x="293" y="512" type="line"/>
      <point x="279" y="504" type="line"/>
      <point x="208" y="619" type="line" smooth="yes"/>
      <point x="203" y="627"/>
      <point x="219" y="635"/>
      <point x="222" y="626" type="curve" smooth="yes"/>
      <point x="233" y="599" type="line"/>
    </contour>
    <contour>
      <point x="521" y="588" type="line"/>
      <point x="393" y="610" type="line" smooth="yes"/>
      <point x="387" y="611"/>
      <point x="399" y="627"/>
      <point x="401" y="621" type="curve" smooth="yes"/>
      <point x="451" y="489" type="line"/>
      <point x="437" y="483" type="line"/>
      <point x="387" y="615" type="line" smooth="yes"/>
      <point x="384" y="621"/>
      <point x="389" y="627"/>
      <point x="395" y="626" type="curve" smooth="yes"/>
      <point x="523" y="604" type="line"/>
    </contour>
    <contour>
      <point x="368" y="399" type="line"/>
      <point x="233" y="412" type="line" smooth="yes"/>
      <point x="227" y="413"/>
      <point x="239" y="429"/>
      <point x="241" y="423" type="curve" smooth="yes"/>
      <point x="294" y="295" type="line"/>
      <point x="280" y="289" type="line"/>
      <point x="227" y="417" type="line" smooth="yes"/>
      <point x="224" y="423"/>
      <point x="229" y="429"/>
      <point x="235" y="428" type="curve" smooth="yes"/>
      <point x="370" y="415" type="line"/>
    </contour>
    <contour>
      <point x="199" y="383" type="line"/>
      <point x="69" y="412" type="line" smooth="yes"/>
      <point x="62" y="414"/>
      <point x="74" y="430"/>
      <point x="78" y="424" type="curve" smooth="yes"/>
      <point x="148" y="311" type="line"/>
      <point x="134" y="303" type="line"/>
      <point x="64" y="416" type="line" smooth="yes"/>
      <point x="60" y="422"/>
      <point x="66" y="429"/>
      <point x="73" y="428" type="curve" smooth="yes"/>
      <point x="203" y="399" type="line"/>
    </contour>
    <contour>
      <point x="393" y="610" type="line"/>
      <point x="346" y="614"/>
      <point x="264" y="617"/>
      <point x="215" y="615" type="curve" smooth="yes"/>
      <point x="213" y="615"/>
      <point x="223" y="620"/>
      <point x="222" y="618" type="curve" smooth="yes"/>
      <point x="-56" y="225" type="line"/>
      <point x="-70" y="235" type="line"/>
      <point x="208" y="628" type="line" smooth="yes"/>
      <point x="210" y="630"/>
      <point x="212" y="631"/>
      <point x="215" y="631" type="curve" smooth="yes"/>
      <point x="264" y="633"/>
      <point x="346" y="630"/>
      <point x="395" y="626" type="curve"/>
    </contour>
    <contour>
      <point x="19" y="111" type="line"/>
      <point x="-69" y="225" type="line" smooth="yes"/>
      <point x="-73" y="230"/>
      <point x="-53" y="232"/>
      <point x="-56" y="227" type="curve" smooth="yes"/>
      <point x="-107" y="113" type="line"/>
      <point x="-121" y="119" type="line"/>
      <point x="-70" y="233" type="line" smooth="yes"/>
      <point x="-68" y="239"/>
      <point x="-60" y="240"/>
      <point x="-57" y="235" type="curve" smooth="yes"/>
      <point x="31" y="121" type="line"/>
    </contour>
  </outline>
</glyph>
<glyph name="K" format="2">
  <advance width="466"/>
  <unicode hex="004B"/>
  <outline>
    <contour>
      <point x="222" y="618" type="line"/>
      <point x="83" y="422" type="line" smooth="yes"/>
      <point x="83" y="422"/>
      <point x="83" y="422"/>
      <point x="83" y="422" type="curve" smooth="yes"/>
      <point x="-56" y="225" type="line"/>
      <point x="-70" y="235" type="line"/>
      <point x="69" y="432" type="line" smooth="yes"/>
      <point x="69" y="432"/>
      <point x="69" y="432"/>
      <point x="69" y="432" type="curve" smooth="yes"/>
      <point x="208" y="628" type="line"/>
    </contour>
    <contour>
      <point x="459" y="616" type="line"/>
      <point x="203" y="461" type="line" smooth="yes"/>
      <point x="203" y="461"/>
      <point x="203" y="461"/>
      <point x="203" y="461" type="curve" smooth="yes"/>
      <point x="148" y="427"/>
      <point x="125" y="422"/>
      <point x="77" y="419" type="curve" smooth="yes"/>
      <point x="66" y="418"/>
      <point x="65" y="434"/>
      <point x="75" y="435" type="curve" smooth="yes"/>
      <point x="128" y="438"/>
      <point x="146" y="429"/>
      <point x="152" y="397" type="curve" smooth="yes"/>
      <point x="152" y="397"/>
      <point x="152" y="398"/>
      <point x="152" y="398" type="curve" smooth="yes"/>
      <point x="185" y="232" type="line"/>
      <point x="169" y="228" type="line"/>
      <point x="136" y="394" type="line" smooth="yes"/>
      <point x="136" y="394"/>
      <point x="136" y="395"/>
      <point x="136" y="395" type="curve" smooth="yes"/>
      <point x="132" y="419"/>
      <point x="117" y="422"/>
      <point x="77" y="419" type="curve" smooth="yes"/>
      <point x="66" y="418"/>
      <point x="65" y="434"/>
      <point x="75" y="435" type="curve" smooth="yes"/>
      <point x="121" y="438"/>
      <point x="142" y="443"/>
      <point x="195" y="475" type="curve" smooth="yes"/>
      <point x="195" y="475"/>
      <point x="195" y="475"/>
      <point x="195" y="475" type="curve" smooth="yes"/>
      <point x="451" y="630" type="line"/>
    </contour>
    <contour>
      <point x="213" y="403" type="line"/>
      <point x="75" y="419" type="line" smooth="yes"/>
      <point x="69" y="420"/>
      <point x="81" y="436"/>
      <point x="83" y="430" type="curve" smooth="yes"/>
      <point x="143" y="303" type="line"/>
      <point x="129" y="297" type="line"/>
      <point x="69" y="424" type="line" smooth="yes"/>
      <point x="66" y="429"/>
      <point x="71" y="436"/>
      <point x="77" y="435" type="curve" smooth="yes"/>
      <point x="215" y="419" type="line"/>
    </contour>
    <contour>
      <point x="19" y="111" type="line"/>
      <point x="-69" y="225" type="line" smooth="yes"/>
      <point x="-73" y="230"/>
      <point x="-53" y="232"/>
      <point x="-56" y="227" type="curve" smooth="yes"/>
      <point x="-107" y="113" type="line"/>
      <point x="-121" y="119" type="line"/>
      <point x="-70" y="233" type="line" smooth="yes"/>
      <point x="-68" y="239"/>
      <point x="-60" y="240"/>
      <point x="-57" y="235" type="curve" smooth="yes"/>
      <point x="31" y="121" type="line"/>
    </contour>
    <contour>
      <point x="219" y="593" type="line"/>
      <point x="208" y="620" type="line" smooth="yes"/>
      <point x="205" y="626"/>
      <point x="210" y="632"/>
      <point x="216" y="631" type="curve" smooth="yes"/>
      <point x="366" y="604" type="line"/>
      <point x="364" y="588" type="line"/>
      <point x="214" y="615" type="line" smooth="yes"/>
      <point x="207" y="616"/>
      <point x="220" y="632"/>
      <point x="222" y="626" type="curve" smooth="yes"/>
      <point x="233" y="599" type="line"/>
    </contour>
    <contour>
      <point x="313" y="110" type="line"/>
      <point x="172" y="224" type="line" smooth="yes"/>
      <point x="167" y="228"/>
      <point x="186" y="234"/>
      <point x="185" y="228" type="curve" smooth="yes"/>
      <point x="161" y="114" type="line"/>
      <point x="145" y="118" type="line"/>
      <point x="169" y="232" type="line" smooth="yes"/>
      <point x="170" y="237"/>
      <point x="177" y="240"/>
      <point x="182" y="236" type="curve" smooth="yes"/>
      <point x="323" y="122" type="line"/>
    </contour>
    <contour>
      <point x="497" y="589" type="line"/>
      <point x="451" y="616" type="line" smooth="yes"/>
      <point x="443" y="621"/>
      <point x="447" y="632"/>
      <point x="456" y="631" type="curve" smooth="yes"/>
      <point x="653" y="604" type="line"/>
      <point x="651" y="588" type="line"/>
      <point x="454" y="615" type="line" smooth="yes"/>
      <point x="445" y="616"/>
      <point x="452" y="634"/>
      <point x="459" y="630" type="curve" smooth="yes"/>
      <point x="505" y="603" type="line"/>
    </contour>
    <contour>
      <point x="76" y="435" type="line"/>
      <point x="118" y="437"/>
      <point x="161" y="439"/>
      <point x="253" y="368" type="curve"/>
      <point x="243" y="356" type="line"/>
      <point x="155" y="423"/>
      <point x="116" y="421"/>
      <point x="76" y="419" type="curve"/>
    </contour>
  </outline>
</glyph>
<glyph name="P" format="2">
  <advance width="416"/>
  <unicode hex="0050"/>
  <outline>
    <contour>
      <point x="51" y="401" type="line"/>
      <point x="165" y="401" type="line"/>
      <point x="165" y="401"/>
      <point x="165" y="401"/>
      <point x="165" y="401" type="curve"/>
      <point x="241" y="401"/>
      <point x="318" y="447"/>
      <point x="366" y="513" type="curve" smooth="yes"/>
      <point x="366" y="513"/>
      <point x="365" y="513"/>
      <point x="365" y="513" type="curve" smooth="yes"/>
      <point x="409" y="576"/>
      <point x="400" y="615"/>
      <point x="328" y="615" type="curve"/>
      <point x="328" y="615"/>
      <point x="328" y="615"/>
      <point x="328" y="615" type="curve"/>
      <point x="214" y="615" type="line" smooth="yes"/>
      <point x="211" y="615"/>
      <point x="222" y="620"/>
      <point x="221" y="618" type="curve" smooth="yes"/>
      <point x="-57" y="225" type="line"/>
      <point x="-71" y="235" type="line"/>
      <point x="207" y="628" type="line" smooth="yes"/>
      <point x="209" y="630"/>
      <point x="211" y="631"/>
      <point x="214" y="631" type="curve" smooth="yes"/>
      <point x="328" y="631" type="line"/>
      <point x="328" y="631"/>
      <point x="328" y="631"/>
      <point x="328" y="631" type="curve"/>
      <point x="414" y="631"/>
      <point x="431" y="578"/>
      <point x="379" y="503" type="curve" smooth="yes"/>
      <point x="379" y="503"/>
      <point x="379" y="503"/>
      <point x="378" y="503" type="curve" smooth="yes"/>
      <point x="328" y="433"/>
      <point x="247" y="385"/>
      <point x="165" y="385" type="curve"/>
      <point x="165" y="385"/>
      <point x="165" y="385"/>
      <point x="165" y="385" type="curve"/>
      <point x="51" y="385" type="line"/>
    </contour>
    <contour>
      <point x="181" y="359" type="line"/>
      <point x="49" y="385" type="line" smooth="yes"/>
      <point x="43" y="386"/>
      <point x="54" y="403"/>
      <point x="58" y="397" type="curve" smooth="yes"/>
      <point x="128" y="282" type="line"/>
      <point x="114" y="274" type="line"/>
      <point x="44" y="389" type="line" smooth="yes"/>
      <point x="41" y="395"/>
      <point x="46" y="402"/>
      <point x="53" y="401" type="curve" smooth="yes"/>
      <point x="185" y="375" type="line"/>
    </contour>
    <contour>
      <point x="19" y="111" type="line"/>
      <point x="-70" y="225" type="line" smooth="yes"/>
      <point x="-74" y="230"/>
      <point x="-54" y="232"/>
      <point x="-57" y="227" type="curve" smooth="yes"/>
      <point x="-108" y="113" type="line"/>
      <point x="-122" y="119" type="line"/>
      <point x="-71" y="233" type="line" smooth="yes"/>
      <point x="-69" y="239"/>
      <point x="-61" y="240"/>
      <point x="-58" y="235" type="curve" smooth="yes"/>
      <point x="31" y="121" type="line"/>
    </contour>
    <contour>
      <point x="218" y="593" type="line"/>
      <point x="207" y="620" type="line" smooth="yes"/>
      <point x="203" y="629"/>
      <point x="216" y="636"/>
      <point x="221" y="627" type="curve" smooth="yes"/>
      <point x="293" y="512" type="line"/>
      <point x="279" y="504" type="line"/>
      <point x="207" y="619" type="line" smooth="yes"/>
      <point x="202" y="627"/>
      <point x="218" y="635"/>
      <point x="221" y="626" type="curve" smooth="yes"/>
      <point x="232" y="599" type="line"/>
    </contour>
  </outline>
</glyph>
<glyph name="Q" format="2">
  <advance width="524"/>
  <unicode hex="0051"/>
  <outline>
    <contour>
      <point x="83" y="231" type="curve"/>
      <point x="83" y="231"/>
      <point x="83" y="231"/>
      <point x="83" y="231" type="curve"/>
      <point x="110" y="231"/>
      <point x="139" y="237"/>
      <point x="170" y="247" type="curve" smooth="yes"/>
      <point x="170" y="247"/>
      <point x="169" y="246"/>
      <point x="169" y="247" type="curve" smooth="yes"/>
      <point x="253" y="277"/>
      <point x="341" y="344"/>
      <point x="402" y="432" type="curve" smooth="yes"/>
      <point x="402" y="432"/>
      <point x="402" y="432"/>
      <point x="402" y="432" type="curve" smooth="yes"/>
      <point x="484" y="547"/>
      <point x="471" y="622"/>
      <point x="371" y="622" type="curve"/>
      <point x="371" y="622"/>
      <point x="371" y="622"/>
      <point x="371" y="622" type="curve"/>
      <point x="267" y="622"/>
      <point x="137" y="543"/>
      <point x="53" y="422" type="curve" smooth="yes"/>
      <point x="53" y="422"/>
      <point x="53" y="422"/>
      <point x="53" y="422" type="curve" smooth="yes"/>
      <point x="-30" y="307"/>
      <point x="-17" y="231"/>
    </contour>
    <contour>
      <point x="83" y="215" type="curve"/>
      <point x="-29" y="215"/>
      <point x="-52" y="303"/>
      <point x="39" y="432" type="curve" smooth="yes"/>
      <point x="40" y="432"/>
      <point x="39" y="432"/>
      <point x="39" y="432" type="curve" smooth="yes"/>
      <point x="127" y="557"/>
      <point x="263" y="638"/>
      <point x="371" y="638" type="curve"/>
      <point x="371" y="638"/>
      <point x="371" y="638"/>
      <point x="371" y="638" type="curve"/>
      <point x="483" y="638"/>
      <point x="506" y="551"/>
      <point x="416" y="422" type="curve" smooth="yes"/>
      <point x="416" y="422"/>
      <point x="416" y="422"/>
      <point x="416" y="422" type="curve" smooth="yes"/>
      <point x="352" y="332"/>
      <point x="261" y="263"/>
      <point x="175" y="231" type="curve" smooth="yes"/>
      <point x="175" y="231"/>
      <point x="175" y="231"/>
      <point x="174" y="231" type="curve" smooth="yes"/>
      <point x="143" y="221"/>
      <point x="112" y="215"/>
      <point x="83" y="215" type="curve"/>
      <point x="83" y="215"/>
      <point x="83" y="215"/>
    </contour>
    <contour>
      <point x="364" y="65" type="line"/>
      <point x="254" y="66"/>
      <point x="169" y="120"/>
      <point x="164" y="239" type="curve"/>
      <point x="180" y="239" type="line"/>
      <point x="185" y="130"/>
      <point x="262" y="82"/>
      <point x="364" y="81" type="curve"/>
    </contour>
    <contour>
      <point x="150" y="114" type="line"/>
      <point x="164" y="240" type="line" smooth="yes"/>
      <point x="165" y="246"/>
      <point x="172" y="249"/>
      <point x="177" y="246" type="curve" smooth="yes"/>
      <point x="291" y="166" type="line"/>
      <point x="281" y="152" type="line"/>
      <point x="167" y="232" type="line" smooth="yes"/>
      <point x="162" y="236"/>
      <point x="181" y="244"/>
      <point x="180" y="238" type="curve" smooth="yes"/>
      <point x="166" y="112" type="line"/>
    </contour>
  </outline>
</glyph>
<glyph name="X" format="2">
  <advance width="465"/>
  <unicode hex="0058"/>
  <outline>
    <contour>
      <point x="177" y="231" type="line"/>
      <point x="194" y="434" type="line" smooth="yes"/>
      <point x="194" y="434"/>
      <point x="194" y="434"/>
      <point x="194" y="434" type="curve" smooth="yes"/>
      <point x="211" y="624" type="line"/>
      <point x="227" y="622" type="line"/>
      <point x="210" y="432" type="line" smooth="yes"/>
      <point x="210" y="432"/>
      <point x="210" y="432"/>
      <point x="210" y="432" type="curve" smooth="yes"/>
      <point x="193" y="229" type="line"/>
    </contour>
    <contour>
      <point x="-80" y="236" type="line"/>
      <point x="197" y="439" type="line" smooth="yes"/>
      <point x="197" y="439"/>
      <point x="197" y="439"/>
      <point x="197" y="439" type="curve" smooth="yes"/>
      <point x="456" y="629" type="line"/>
      <point x="466" y="617" type="line"/>
      <point x="207" y="427" type="line" smooth="yes"/>
      <point x="207" y="427"/>
      <point x="207" y="427"/>
      <point x="207" y="427" type="curve" smooth="yes"/>
      <point x="-70" y="224" type="line"/>
    </contour>
    <contour>
      <point x="-13" y="112" type="line"/>
      <point x="-82" y="226" type="line" smooth="yes"/>
      <point x="-85" y="231"/>
      <point x="-65" y="230"/>
      <point x="-68" y="225" type="curve" smooth="yes"/>
      <point x="-148" y="111" type="line"/>
      <point x="-162" y="121" type="line"/>
      <point x="-82" y="235" type="line" smooth="yes"/>
      <point x="-78" y="239"/>
      <point x="-71" y="239"/>
      <point x="-68" y="234" type="curve" smooth="yes"/>
      <point x="1" y="120" type="line"/>
    </contour>
    <contour>
      <point x="186" y="602" type="line"/>
      <point x="213" y="629" type="line" smooth="yes"/>
      <point x="215" y="631"/>
      <point x="218" y="631"/>
      <point x="221" y="631" type="curve" smooth="yes"/>
      <point x="357" y="604" type="line"/>
      <point x="353" y="588" type="line"/>
      <point x="217" y="615" type="line" smooth="yes"/>
      <point x="215" y="616"/>
      <point x="227" y="619"/>
      <point x="225" y="617" type="curve" smooth="yes"/>
      <point x="198" y="590" type="line"/>
    </contour>
    <contour>
      <point x="305" y="110" type="line"/>
      <point x="180" y="224" type="line" smooth="yes"/>
      <point x="175" y="228"/>
      <point x="194" y="233"/>
      <point x="193" y="227" type="curve" smooth="yes"/>
      <point x="155" y="113" type="line"/>
      <point x="139" y="119" type="line"/>
      <point x="177" y="233" type="line" smooth="yes"/>
      <point x="179" y="238"/>
      <point x="186" y="240"/>
      <point x="190" y="236" type="curve" smooth="yes"/>
      <point x="315" y="122" type="line"/>
    </contour>
    <contour>
      <point x="487" y="590" type="line"/>
      <point x="456" y="617" type="line" smooth="yes"/>
      <point x="450" y="622"/>
      <point x="454" y="632"/>
      <point x="462" y="631" type="curve" smooth="yes"/>
      <point x="642" y="604" type="line"/>
      <point x="640" y="588" type="line"/>
      <point x="460" y="615" type="line" smooth="yes"/>
      <point x="452" y="616"/>
      <point x="460" y="634"/>
      <point x="466" y="629" type="curve" smooth="yes"/>
      <point x="497" y="602" type="line"/>
    </contour>
    <contour>
      <point x="184" y="358" type="line"/>
      <point x="194" y="434" type="line" smooth="yes"/>
      <point x="195" y="440"/>
      <point x="201" y="443"/>
      <point x="206" y="440" type="curve" smooth="yes"/>
      <point x="315" y="374" type="line"/>
      <point x="307" y="360" type="line"/>
      <point x="198" y="426" type="line" smooth="yes"/>
      <point x="193" y="429"/>
      <point x="211" y="438"/>
      <point x="210" y="432" type="curve" smooth="yes"/>
      <point x="200" y="356" type="line"/>
    </contour>
    <contour>
      <point x="319" y="441" type="line"/>
      <point x="203" y="425" type="line" smooth="yes"/>
      <point x="199" y="425"/>
      <point x="210" y="436"/>
      <point x="210" y="432" type="curve" smooth="yes"/>
      <point x="193" y="275" type="line"/>
      <point x="177" y="277" type="line"/>
      <point x="194" y="434" type="line" smooth="yes"/>
      <point x="194" y="438"/>
      <point x="197" y="440"/>
      <point x="201" y="441" type="curve" smooth="yes"/>
      <point x="317" y="457" type="line"/>
    </contour>
  </outline>
</glyph>
<glyph name="grave" format="2">
  <advance width="288"/>
  <unicode hex="0060"/>
  <outline>
    <contour>
      <point x="268" y="636" type="line"/>
      <point x="272" y="701" type="line"/>
      <point x="288" y="701" type="line"/>
      <point x="284" y="636" type="line"/>
    </contour>
    <contour>
      <point x="269" y="668" type="line"/>
      <point x="272" y="702" type="line" smooth="yes"/>
      <point x="272" y="707"/>
      <point x="277" y="710"/>
      <point x="282" y="709" type="curve" smooth="yes"/>
      <point x="392" y="675" type="line"/>
      <point x="388" y="659" type="line"/>
      <point x="278" y="693" type="line" smooth="yes"/>
      <point x="273" y="695"/>
      <point x="288" y="705"/>
      <point x="288" y="700" type="curve" smooth="yes"/>
      <point x="285" y="666" type="line"/>
    </contour>
    <contour>
      <point x="363" y="524" type="line"/>
      <point x="270" y="631" type="line" smooth="yes"/>
      <point x="265" y="636"/>
      <point x="284" y="643"/>
      <point x="284" y="636" type="curve" smooth="yes"/>
      <point x="282" y="529" type="line"/>
      <point x="266" y="529" type="line"/>
      <point x="268" y="636" type="line" smooth="yes"/>
      <point x="268" y="643"/>
      <point x="277" y="647"/>
      <point x="282" y="641" type="curve" smooth="yes"/>
      <point x="375" y="534" type="line"/>
    </contour>
  </outline>
</glyph>
<glyph name="c" format="2">
  <advance width="383"/>
  <unicode hex="0063"/>
  <outline>
    <contour>
      <point x="346" y="539" type="line"/>
      <point x="331" y="547"/>
      <point x="312" y="554"/>
      <point x="288" y="554" type="curve"/>
      <point x="288" y="554"/>
      <point x="288" y="554"/>
      <point x="288" y="554" type="curve"/>
      <point x="197" y="554"/>
      <point x="89" y="486"/>
      <point x="19" y="386" type="curve" smooth="yes"/>
      <point x="19" y="386"/>
      <point x="19" y="386"/>
      <point x="19" y="386" type="curve" smooth="yes"/>
      <point x="-50" y="290"/>
      <point x="-39" y="230"/>
      <point x="48" y="230" type="curve"/>
      <point x="48" y="230"/>
      <point x="48" y="230"/>
      <point x="48" y="230" type="curve"/>
      <point x="73" y="230"/>
      <point x="100" y="235"/>
      <point x="128" y="244" type="curve"/>
      <point x="132" y="228" type="line"/>
      <point x="104" y="219"/>
      <point x="75" y="214"/>
      <point x="48" y="214" type="curve"/>
      <point x="48" y="214"/>
      <point x="48" y="214"/>
      <point x="48" y="214" type="curve"/>
      <point x="-51" y="214"/>
      <point x="-72" y="286"/>
      <point x="5" y="396" type="curve" smooth="yes"/>
      <point x="5" y="396"/>
      <point x="5" y="396"/>
      <point x="5" y="396" type="curve" smooth="yes"/>
      <point x="79" y="500"/>
      <point x="193" y="570"/>
      <point x="288" y="570" type="curve"/>
      <point x="288" y="570"/>
      <point x="288" y="570"/>
      <point x="288" y="570" type="curve"/>
      <point x="316" y="570"/>
      <point x="337" y="563"/>
      <point x="354" y="553" type="curve"/>
    </contour>
    <contour>
      <point x="466" y="502" type="line"/>
      <point x="348" y="538" type="line" smooth="yes"/>
      <point x="342" y="540"/>
      <point x="356" y="554"/>
      <point x="358" y="548" type="curve" smooth="yes"/>
      <point x="395" y="398" type="line"/>
      <point x="379" y="394" type="line"/>
      <point x="342" y="544" type="line" smooth="yes"/>
      <point x="341" y="550"/>
      <point x="346" y="555"/>
      <point x="352" y="554" type="curve" smooth="yes"/>
      <point x="470" y="518" type="line"/>
    </contour>
    <contour>
      <point x="282" y="238" type="line"/>
      <point x="131" y="228" type="line" smooth="yes"/>
      <point x="124" y="228"/>
      <point x="133" y="246"/>
      <point x="137" y="240" type="curve" smooth="yes"/>
      <point x="207" y="135" type="line"/>
      <point x="193" y="127" type="line"/>
      <point x="123" y="232" type="line" smooth="yes"/>
      <point x="120" y="237"/>
      <point x="123" y="244"/>
      <point x="129" y="244" type="curve" smooth="yes"/>
      <point x="280" y="254" type="line"/>
    </contour>
  </outline>
</glyph>
<glyph name="k" format="2">
  <advance width="432"/>
  <unicode hex="006B"/>
  <outline>
    <contour>
      <point x="172" y="548" type="line"/>
      <point x="63" y="393" type="line" smooth="yes"/>
      <point x="63" y="393"/>
      <point x="63" y="393"/>
      <point x="63" y="393" type="curve" smooth="yes"/>
      <point x="-56" y="225" type="line"/>
      <point x="-70" y="235" type="line"/>
      <point x="49" y="403" type="line" smooth="yes"/>
      <point x="49" y="403"/>
      <point x="49" y="403"/>
      <point x="49" y="403" type="curve" smooth="yes"/>
      <point x="158" y="558" type="line"/>
    </contour>
    <contour>
      <point x="144" y="229" type="line"/>
      <point x="135" y="366" type="line" smooth="yes"/>
      <point x="135" y="367"/>
      <point x="135" y="367"/>
      <point x="135" y="367" type="curve" smooth="yes"/>
      <point x="134" y="393"/>
      <point x="121" y="393"/>
      <point x="56" y="390" type="curve" smooth="yes"/>
      <point x="46" y="390"/>
      <point x="45" y="406"/>
      <point x="56" y="406" type="curve" smooth="yes"/>
      <point x="129" y="409"/>
      <point x="140" y="412"/>
      <point x="193" y="446" type="curve" smooth="yes"/>
      <point x="193" y="446"/>
      <point x="193" y="446"/>
      <point x="193" y="446" type="curve" smooth="yes"/>
      <point x="372" y="560" type="line"/>
      <point x="380" y="546" type="line"/>
      <point x="201" y="432" type="line" smooth="yes"/>
      <point x="201" y="432"/>
      <point x="201" y="432"/>
      <point x="201" y="432" type="curve" smooth="yes"/>
      <point x="146" y="398"/>
      <point x="133" y="393"/>
      <point x="56" y="390" type="curve" smooth="yes"/>
      <point x="46" y="390"/>
      <point x="45" y="406"/>
      <point x="56" y="406" type="curve" smooth="yes"/>
      <point x="140" y="409"/>
      <point x="150" y="401"/>
      <point x="151" y="367" type="curve" smooth="yes"/>
      <point x="151" y="367"/>
      <point x="151" y="368"/>
      <point x="151" y="368" type="curve" smooth="yes"/>
      <point x="160" y="231" type="line"/>
    </contour>
    <contour>
      <point x="176" y="352" type="line"/>
      <point x="54" y="390" type="line" smooth="yes"/>
      <point x="46" y="393"/>
      <point x="57" y="409"/>
      <point x="62" y="403" type="curve" smooth="yes"/>
      <point x="140" y="303" type="line"/>
      <point x="128" y="293" type="line"/>
      <point x="50" y="393" type="line" smooth="yes"/>
      <point x="45" y="399"/>
      <point x="51" y="408"/>
      <point x="58" y="406" type="curve" smooth="yes"/>
      <point x="180" y="368" type="line"/>
    </contour>
    <contour>
      <point x="18" y="111" type="line"/>
      <point x="-69" y="225" type="line" smooth="yes"/>
      <point x="-73" y="230"/>
      <point x="-53" y="233"/>
      <point x="-56" y="227" type="curve" smooth="yes"/>
      <point x="-104" y="113" type="line"/>
      <point x="-118" y="119" type="line"/>
      <point x="-70" y="233" type="line" smooth="yes"/>
      <point x="-68" y="239"/>
      <point x="-60" y="240"/>
      <point x="-57" y="235" type="curve" smooth="yes"/>
      <point x="30" y="121" type="line"/>
    </contour>
    <contour>
      <point x="172" y="522" type="line"/>
      <point x="158" y="549" type="line" smooth="yes"/>
      <point x="155" y="555"/>
      <point x="160" y="562"/>
      <point x="166" y="561" type="curve" smooth="yes"/>
      <point x="315" y="534" type="line"/>
      <point x="313" y="518" type="line"/>
      <point x="164" y="545" type="line" smooth="yes"/>
      <point x="157" y="546"/>
      <point x="169" y="563"/>
      <point x="172" y="557" type="curve" smooth="yes"/>
      <point x="186" y="530" type="line"/>
    </contour>
    <contour>
      <point x="279" y="110" type="line"/>
      <point x="147" y="224" type="line" smooth="yes"/>
      <point x="142" y="228"/>
      <point x="161" y="234"/>
      <point x="160" y="228" type="curve" smooth="yes"/>
      <point x="132" y="114" type="line"/>
      <point x="116" y="118" type="line"/>
      <point x="144" y="232" type="line" smooth="yes"/>
      <point x="146" y="238"/>
      <point x="153" y="240"/>
      <point x="157" y="236" type="curve" smooth="yes"/>
      <point x="289" y="122" type="line"/>
    </contour>
    <contour>
      <point x="418" y="519" type="line"/>
      <point x="372" y="546" type="line" smooth="yes"/>
      <point x="364" y="551"/>
      <point x="368" y="562"/>
      <point x="377" y="561" type="curve" smooth="yes"/>
      <point x="570" y="534" type="line"/>
      <point x="568" y="518" type="line"/>
      <point x="375" y="545" type="line" smooth="yes"/>
      <point x="366" y="546"/>
      <point x="372" y="564"/>
      <point x="380" y="560" type="curve" smooth="yes"/>
      <point x="426" y="533" type="line"/>
    </contour>
    <contour>
      <point x="246" y="328" type="line"/>
      <point x="164" y="373"/>
      <point x="102" y="391"/>
      <point x="56" y="390" type="curve"/>
      <point x="56" y="406" type="line"/>
      <point x="104" y="407"/>
      <point x="168" y="389"/>
      <point x="254" y="342" type="curve"/>
    </contour>
  </outline>
</glyph>
<glyph name="u" format="2">
  <advance width="438"/>
  <unicode hex="0075"/>
  <outline>
    <contour>
      <point x="403" y="548" type="line"/>
      <point x="251" y="333" type="line" smooth="yes"/>
      <point x="251" y="333"/>
      <point x="251" y="333"/>
      <point x="251" y="333" type="curve" smooth="yes"/>
      <point x="198" y="259"/>
      <point x="114" y="212"/>
      <point x="38" y="212" type="curve"/>
      <point x="38" y="212"/>
      <point x="38" y="212"/>
      <point x="38" y="212" type="curve"/>
      <point x="-42" y="212"/>
      <point x="-64" y="265"/>
      <point x="-9" y="343" type="curve" smooth="yes"/>
      <point x="-9" y="343"/>
      <point x="-9" y="343"/>
      <point x="-9" y="343" type="curve" smooth="yes"/>
      <point x="143" y="558" type="line"/>
      <point x="157" y="548" type="line"/>
      <point x="5" y="333" type="line" smooth="yes"/>
      <point x="5" y="333"/>
      <point x="5" y="333"/>
      <point x="5" y="333" type="curve" smooth="yes"/>
      <point x="-42" y="267"/>
      <point x="-30" y="228"/>
      <point x="38" y="228" type="curve"/>
      <point x="38" y="228"/>
      <point x="38" y="228"/>
      <point x="38" y="228" type="curve"/>
      <point x="110" y="228"/>
      <point x="188" y="273"/>
      <point x="237" y="343" type="curve" smooth="yes"/>
      <point x="237" y="343"/>
      <point x="237" y="343"/>
      <point x="237" y="343" type="curve" smooth="yes"/>
      <point x="389" y="558" type="line"/>
    </contour>
    <contour>
      <point x="156" y="523" type="line"/>
      <point x="143" y="550" type="line" smooth="yes"/>
      <point x="140" y="555"/>
      <point x="145" y="562"/>
      <point x="151" y="561" type="curve" smooth="yes"/>
      <point x="299" y="534" type="line"/>
      <point x="297" y="518" type="line"/>
      <point x="149" y="545" type="line" smooth="yes"/>
      <point x="142" y="546"/>
      <point x="154" y="562"/>
      <point x="157" y="556" type="curve" smooth="yes"/>
      <point x="170" y="529" type="line"/>
    </contour>
    <contour>
      <point x="403" y="522" type="line"/>
      <point x="389" y="549" type="line" smooth="yes"/>
      <point x="386" y="555"/>
      <point x="391" y="562"/>
      <point x="397" y="561" type="curve" smooth="yes"/>
      <point x="546" y="534" type="line"/>
      <point x="544" y="518" type="line"/>
      <point x="395" y="545" type="line" smooth="yes"/>
      <point x="388" y="546"/>
      <point x="400" y="563"/>
      <point x="403" y="557" type="curve" smooth="yes"/>
      <point x="417" y="530" type="line"/>
    </contour>
  </outline>
</glyph>
<glyph name="v" format="2">
  <advance width="428"/>
  <unicode hex="0076"/>
  <outline>
    <contour>
      <point x="417" y="520" type="line"/>
      <point x="391" y="541" type="line" smooth="yes"/>
      <point x="385" y="546"/>
      <point x="389" y="556"/>
      <point x="397" y="555" type="curve" smooth="yes"/>
      <point x="564" y="534" type="line"/>
      <point x="562" y="518" type="line"/>
      <point x="395" y="539" type="line" smooth="yes"/>
      <point x="387" y="540"/>
      <point x="395" y="558"/>
      <point x="401" y="553" type="curve" smooth="yes"/>
      <point x="427" y="532" type="line"/>
    </contour>
    <contour>
      <point x="127" y="527" type="line"/>
      <point x="129" y="548" type="line" smooth="yes"/>
      <point x="129" y="552"/>
      <point x="134" y="556"/>
      <point x="138" y="555" type="curve" smooth="yes"/>
      <point x="287" y="534" type="line"/>
      <point x="285" y="518" type="line"/>
      <point x="136" y="539" type="line" smooth="yes"/>
      <point x="131" y="540"/>
      <point x="145" y="551"/>
      <point x="145" y="546" type="curve" smooth="yes"/>
      <point x="143" y="525" type="line"/>
    </contour>
    <contour>
      <point x="144" y="544" type="line"/>
      <point x="131" y="514"/>
      <point x="114" y="466"/>
      <point x="87" y="382" type="curve" smooth="yes"/>
      <point x="87" y="382"/>
      <point x="87" y="383"/>
      <point x="87" y="383" type="curve" smooth="yes"/>
      <point x="74" y="342"/>
      <point x="56" y="289"/>
      <point x="41" y="247" type="curve" smooth="yes"/>
      <point x="39" y="242"/>
      <point x="27" y="258"/>
      <point x="33" y="258" type="curve" smooth="yes"/>
      <point x="79" y="258" type="line" smooth="yes"/>
      <point x="81" y="258"/>
      <point x="72" y="254"/>
      <point x="74" y="256" type="curve" smooth="yes"/>
      <point x="113" y="292"/>
      <point x="180" y="355"/>
      <point x="219" y="391" type="curve" smooth="yes"/>
      <point x="219" y="391"/>
      <point x="219" y="391"/>
      <point x="219" y="391" type="curve" smooth="yes"/>
      <point x="310" y="476"/>
      <point x="360" y="523"/>
      <point x="390" y="553" type="curve"/>
      <point x="402" y="541" type="line"/>
      <point x="372" y="511"/>
      <point x="322" y="464"/>
      <point x="229" y="379" type="curve" smooth="yes"/>
      <point x="229" y="379"/>
      <point x="229" y="379"/>
      <point x="229" y="379" type="curve" smooth="yes"/>
      <point x="182" y="335"/>
      <point x="133" y="290"/>
      <point x="84" y="244" type="curve" smooth="yes"/>
      <point x="83" y="243"/>
      <point x="81" y="242"/>
      <point x="79" y="242" type="curve" smooth="yes"/>
      <point x="33" y="242" type="line" smooth="yes"/>
      <point x="27" y="242"/>
      <point x="24" y="247"/>
      <point x="25" y="253" type="curve" smooth="yes"/>
      <point x="40" y="295"/>
      <point x="58" y="348"/>
      <point x="71" y="387" type="curve" smooth="yes"/>
      <point x="71" y="387"/>
      <point x="71" y="388"/>
      <point x="71" y="388" type="curve" smooth="yes"/>
      <point x="100" y="472"/>
      <point x="117" y="520"/>
      <point x="130" y="550" type="curve"/>
    </contour>
    <contour>
      <point x="-2" y="118" type="line"/>
      <point x="25" y="252" type="line" smooth="yes"/>
      <point x="26" y="255"/>
      <point x="29" y="258"/>
      <point x="33" y="258" type="curve" smooth="yes"/>
      <point x="157" y="255" type="line" smooth="yes"/>
      <point x="168" y="255"/>
      <point x="167" y="239"/>
      <point x="157" y="239" type="curve" smooth="yes"/>
      <point x="79" y="242" type="line" smooth="yes"/>
      <point x="73" y="242"/>
      <point x="85" y="257"/>
      <point x="87" y="252" type="curve" smooth="yes"/>
      <point x="120" y="118" type="line"/>
      <point x="104" y="114" type="line"/>
      <point x="71" y="248" type="line" smooth="yes"/>
      <point x="70" y="253"/>
      <point x="74" y="258"/>
      <point x="79" y="258" type="curve" smooth="yes"/>
      <point x="157" y="255" type="line" smooth="yes"/>
      <point x="168" y="255"/>
      <point x="167" y="239"/>
      <point x="157" y="239" type="curve" smooth="yes"/>
      <point x="33" y="242" type="line" smooth="yes"/>
      <point x="29" y="242"/>
      <point x="42" y="252"/>
      <point x="41" y="248" type="curve" smooth="yes"/>
      <point x="14" y="114" type="line"/>
    </contour>
  </outline>
</glyph>
<glyph name="z" format="2">
  <advance width="364"/>
  <unicode hex="007A"/>
  <outline>
    <contour>
      <point x="129" y="558" type="line"/>
      <point x="159" y="561"/>
      <point x="201" y="562"/>
      <point x="325" y="562" type="curve" smooth="yes"/>
      <point x="333" y="562"/>
      <point x="336" y="552"/>
      <point x="330" y="548" type="curve" smooth="yes"/>
      <point x="-77" y="223" type="line" smooth="yes"/>
      <point x="-83" y="218"/>
      <point x="-90" y="237"/>
      <point x="-82" y="237" type="curve" smooth="yes"/>
      <point x="35" y="237"/>
      <point x="75" y="238"/>
      <point x="105" y="241" type="curve"/>
      <point x="107" y="225" type="line"/>
      <point x="77" y="222"/>
      <point x="35" y="221"/>
      <point x="-82" y="221" type="curve" smooth="yes"/>
      <point x="-90" y="221"/>
      <point x="-93" y="231"/>
      <point x="-87" y="235" type="curve" smooth="yes"/>
      <point x="320" y="560" type="line" smooth="yes"/>
      <point x="326" y="565"/>
      <point x="333" y="546"/>
      <point x="325" y="546" type="curve" smooth="yes"/>
      <point x="201" y="546"/>
      <point x="161" y="545"/>
      <point x="131" y="542" type="curve"/>
    </contour>
    <contour>
      <point x="86" y="422" type="line"/>
      <point x="122" y="552" type="line" smooth="yes"/>
      <point x="124" y="557"/>
      <point x="130" y="560"/>
      <point x="134" y="557" type="curve" smooth="yes"/>
      <point x="173" y="533" type="line"/>
      <point x="165" y="519" type="line"/>
      <point x="126" y="543" type="line" smooth="yes"/>
      <point x="121" y="546"/>
      <point x="139" y="553"/>
      <point x="138" y="548" type="curve" smooth="yes"/>
      <point x="102" y="418" type="line"/>
    </contour>
    <contour>
      <point x="261" y="221" type="line"/>
      <point x="106" y="225" type="line" smooth="yes"/>
      <point x="100" y="225"/>
      <point x="110" y="242"/>
      <point x="113" y="237" type="curve" smooth="yes"/>
      <point x="174" y="120" type="line"/>
      <point x="160" y="112" type="line"/>
      <point x="99" y="229" type="line" smooth="yes"/>
      <point x="96" y="235"/>
      <point x="100" y="241"/>
      <point x="106" y="241" type="curve" smooth="yes"/>
      <point x="261" y="237" type="line"/>
    </contour>
    <contour>
      <point x="-147" y="120" type="line"/>
      <point x="-89" y="233" type="line" smooth="yes"/>
      <point x="-88" y="236"/>
      <point x="-84" y="237"/>
      <point x="-81" y="237" type="curve" smooth="yes"/>
      <point x="77" y="209" type="line"/>
      <point x="75" y="193" type="line"/>
      <point x="-83" y="221" type="line" smooth="yes"/>
      <point x="-87" y="222"/>
      <point x="-73" y="228"/>
      <point x="-75" y="225" type="curve" smooth="yes"/>
      <point x="-133" y="112" type="line"/>
    </contour>
    <contour>
      <point x="261" y="445" type="line"/>
      <point x="318" y="558" type="line" smooth="yes"/>
      <point x="319" y="561"/>
      <point x="323" y="562"/>
      <point x="326" y="562" type="curve" smooth="yes"/>
      <point x="485" y="534" type="line"/>
      <point x="483" y="518" type="line"/>
      <point x="324" y="546" type="line" smooth="yes"/>
      <point x="320" y="547"/>
      <point x="334" y="554"/>
      <point x="332" y="550" type="curve" smooth="yes"/>
      <point x="275" y="437" type="line"/>
    </contour>
  </outline>
</glyph>
<glyph name="degree" format="2">
  <advance width="376"/>
  <unicode hex="00B0"/>
  <outline>
    <contour>
      <point x="134" y="409" type="curve"/>
      <point x="134" y="409"/>
      <point x="134" y="409"/>
      <point x="134" y="409" type="curve"/>
      <point x="198" y="409"/>
      <point x="276" y="456"/>
      <point x="323" y="524" type="curve" smooth="yes"/>
      <point x="323" y="524"/>
      <point x="323" y="524"/>
      <point x="323" y="524" type="curve" smooth="yes"/>
      <point x="369" y="587"/>
      <point x="361" y="629"/>
      <point x="301" y="629" type="curve"/>
      <point x="301" y="629"/>
      <point x="301" y="629"/>
      <point x="301" y="629" type="curve"/>
      <point x="238" y="629"/>
      <point x="162" y="582"/>
      <point x="114" y="514" type="curve" smooth="yes"/>
      <point x="113" y="514"/>
      <point x="114" y="514"/>
      <point x="114" y="514" type="curve" smooth="yes"/>
      <point x="69" y="451"/>
      <point x="75" y="409"/>
    </contour>
    <contour>
      <point x="134" y="393" type="curve"/>
      <point x="63" y="393"/>
      <point x="47" y="447"/>
      <point x="100" y="524" type="curve" smooth="yes"/>
      <point x="100" y="524"/>
      <point x="100" y="524"/>
      <point x="100" y="524" type="curve" smooth="yes"/>
      <point x="152" y="596"/>
      <point x="234" y="645"/>
      <point x="301" y="645" type="curve"/>
      <point x="301" y="645"/>
      <point x="301" y="645"/>
      <point x="301" y="645" type="curve"/>
      <point x="373" y="645"/>
      <point x="391" y="591"/>
      <point x="337" y="514" type="curve" smooth="yes"/>
      <point x="336" y="514"/>
      <point x="337" y="514"/>
      <point x="337" y="514" type="curve" smooth="yes"/>
      <point x="286" y="442"/>
      <point x="202" y="393"/>
      <point x="134" y="393" type="curve"/>
      <point x="134" y="393"/>
      <point x="134" y="393"/>
    </contour>
  </outline>
</glyph>
<glyph name="threesuperior" format="2">
  <advance width="296"/>
  <unicode hex="00B3"/>
  <outline>
    <contour>
      <point x="41" y="418" type="line"/>
      <point x="51" y="414"/>
      <point x="64" y="411"/>
      <point x="78" y="411" type="curve"/>
      <point x="78" y="411"/>
      <point x="78" y="411"/>
      <point x="78" y="411" type="curve"/>
      <point x="127" y="411"/>
      <point x="181" y="434"/>
      <point x="208" y="474" type="curve" smooth="yes"/>
      <point x="208" y="474"/>
      <point x="208" y="474"/>
      <point x="209" y="474" type="curve" smooth="yes"/>
      <point x="229" y="502"/>
      <point x="214" y="518"/>
      <point x="161" y="521" type="curve" smooth="yes"/>
      <point x="153" y="521"/>
      <point x="150" y="531"/>
      <point x="156" y="536" type="curve" smooth="yes"/>
      <point x="303" y="638" type="line" smooth="yes"/>
      <point x="310" y="642"/>
      <point x="316" y="623"/>
      <point x="308" y="623" type="curve" smooth="yes"/>
      <point x="259" y="623"/>
      <point x="224" y="622"/>
      <point x="197" y="620" type="curve"/>
      <point x="195" y="636" type="line"/>
      <point x="224" y="638"/>
      <point x="259" y="639"/>
      <point x="308" y="639" type="curve" smooth="yes"/>
      <point x="316" y="639"/>
      <point x="319" y="629"/>
      <point x="313" y="624" type="curve" smooth="yes"/>
      <point x="166" y="522" type="line" smooth="yes"/>
      <point x="159" y="518"/>
      <point x="154" y="537"/>
      <point x="161" y="537" type="curve" smooth="yes"/>
      <point x="232" y="534"/>
      <point x="249" y="502"/>
      <point x="221" y="464" type="curve" smooth="yes"/>
      <point x="221" y="464"/>
      <point x="222" y="465"/>
      <point x="222" y="464" type="curve" smooth="yes"/>
      <point x="191" y="420"/>
      <point x="133" y="395"/>
      <point x="78" y="395" type="curve"/>
      <point x="78" y="395"/>
      <point x="78" y="395"/>
      <point x="78" y="395" type="curve"/>
      <point x="62" y="395"/>
      <point x="47" y="398"/>
      <point x="35" y="404" type="curve"/>
    </contour>
    <contour>
      <point x="170" y="513" type="line"/>
      <point x="188" y="629" type="line" smooth="yes"/>
      <point x="189" y="635"/>
      <point x="196" y="638"/>
      <point x="201" y="634" type="curve" smooth="yes"/>
      <point x="243" y="602" type="line"/>
      <point x="233" y="590" type="line"/>
      <point x="191" y="622" type="line" smooth="yes"/>
      <point x="186" y="625"/>
      <point x="205" y="633"/>
      <point x="204" y="627" type="curve" smooth="yes"/>
      <point x="186" y="511" type="line"/>
    </contour>
    <contour>
      <point x="24" y="311" type="line"/>
      <point x="30" y="411" type="line" smooth="yes"/>
      <point x="30" y="417"/>
      <point x="35" y="420"/>
      <point x="40" y="419" type="curve" smooth="yes"/>
      <point x="94" y="403" type="line"/>
      <point x="90" y="387" type="line"/>
      <point x="36" y="403" type="line" smooth="yes"/>
      <point x="31" y="405"/>
      <point x="46" y="416"/>
      <point x="46" y="411" type="curve" smooth="yes"/>
      <point x="40" y="311" type="line"/>
    </contour>
    <contour>
      <point x="127" y="433" type="line"/>
      <point x="153" y="531" type="line" smooth="yes"/>
      <point x="154" y="536"/>
      <point x="159" y="538"/>
      <point x="164" y="536" type="curve" smooth="yes"/>
      <point x="286" y="490" type="line"/>
      <point x="280" y="476" type="line"/>
      <point x="158" y="522" type="line" smooth="yes"/>
      <point x="154" y="523"/>
      <point x="170" y="532"/>
      <point x="169" y="527" type="curve" smooth="yes"/>
      <point x="143" y="429" type="line"/>
    </contour>
    <contour>
      <point x="260" y="527" type="line"/>
      <point x="301" y="634" type="line" smooth="yes"/>
      <point x="302" y="638"/>
      <point x="306" y="640"/>
      <point x="310" y="639" type="curve" smooth="yes"/>
      <point x="450" y="604" type="line"/>
      <point x="446" y="588" type="line"/>
      <point x="306" y="623" type="line" smooth="yes"/>
      <point x="302" y="624"/>
      <point x="317" y="632"/>
      <point x="315" y="628" type="curve" smooth="yes"/>
      <point x="274" y="521" type="line"/>
    </contour>
  </outline>
</glyph>
<glyph name="acute" format="2">
  <advance width="288"/>
  <unicode hex="00B4"/>
  <outline>
    <contour>
      <point x="331" y="695" type="line"/>
      <point x="243" y="630" type="line"/>
      <point x="233" y="642" type="line"/>
      <point x="321" y="707" type="line"/>
    </contour>
    <contour>
      <point x="363" y="661" type="line"/>
      <point x="321" y="695" type="line" smooth="yes"/>
      <point x="314" y="700"/>
      <point x="319" y="711"/>
      <point x="328" y="709" type="curve" smooth="yes"/>
      <point x="483" y="675" type="line"/>
      <point x="479" y="659" type="line"/>
      <point x="324" y="693" type="line" smooth="yes"/>
      <point x="316" y="695"/>
      <point x="324" y="713"/>
      <point x="331" y="707" type="curve" smooth="yes"/>
      <point x="373" y="673" type="line"/>
    </contour>
    <contour>
      <point x="281" y="526" type="line"/>
      <point x="231" y="633" type="line" smooth="yes"/>
      <point x="228" y="639"/>
      <point x="248" y="639"/>
      <point x="245" y="633" type="curve" smooth="yes"/>
      <point x="200" y="526" type="line"/>
      <point x="186" y="532" type="line"/>
      <point x="231" y="639" type="line" smooth="yes"/>
      <point x="233" y="645"/>
      <point x="242" y="646"/>
      <point x="245" y="639" type="curve" smooth="yes"/>
      <point x="295" y="532" type="line"/>
    </contour>
  </outline>
</glyph>
<glyph name="threequarters" format="2">
  <advance width="678"/>
  <unicode hex="00BE"/>
  <outline>
    <contour>
      <point x="580" y="624" type="line"/>
      <point x="45" y="217" type="line"/>
      <point x="35" y="229" type="line"/>
      <point x="570" y="636" type="line"/>
    </contour>
    <contour>
      <point x="79" y="113" type="line"/>
      <point x="33" y="220" type="line" smooth="yes"/>
      <point x="30" y="226"/>
      <point x="50" y="227"/>
      <point x="47" y="220" type="curve" smooth="yes"/>
      <point x="4" y="113" type="line"/>
      <point x="-10" y="119" type="line"/>
      <point x="33" y="226" type="line" smooth="yes"/>
      <point x="35" y="233"/>
      <point x="45" y="233"/>
      <point x="47" y="226" type="curve" smooth="yes"/>
      <point x="93" y="119" type="line"/>
    </contour>
    <contour>
      <point x="625" y="589" type="line"/>
      <point x="571" y="623" type="line" smooth="yes"/>
      <point x="563" y="628"/>
      <point x="568" y="640"/>
      <point x="577" y="638" type="curve" smooth="yes"/>
      <point x="720" y="604" type="line"/>
      <point x="716" y="588" type="line"/>
      <point x="573" y="622" type="line" smooth="yes"/>
      <point x="564" y="624"/>
      <point x="572" y="642"/>
      <point x="579" y="637" type="curve" smooth="yes"/>
      <point x="633" y="603" type="line"/>
    </contour>
    <contour>
      <point x="388" y="228" type="line"/>
      <point x="543" y="447" type="line" smooth="yes"/>
      <point x="547" y="452"/>
      <point x="556" y="434"/>
      <point x="550" y="434" type="curve" smooth="yes"/>
      <point x="491" y="434" type="line" smooth="yes"/>
      <point x="489" y="434"/>
      <point x="498" y="437"/>
      <point x="496" y="436" type="curve" smooth="yes"/>
      <point x="305" y="279" type="line" smooth="yes"/>
      <point x="299" y="274"/>
      <point x="292" y="293"/>
      <point x="300" y="293" type="curve" smooth="yes"/>
      <point x="484" y="293" type="line"/>
      <point x="484" y="277" type="line"/>
      <point x="300" y="277" type="line" smooth="yes"/>
      <point x="292" y="277"/>
      <point x="289" y="286"/>
      <point x="295" y="291" type="curve" smooth="yes"/>
      <point x="486" y="448" type="line" smooth="yes"/>
      <point x="487" y="449"/>
      <point x="489" y="450"/>
      <point x="491" y="450" type="curve" smooth="yes"/>
      <point x="550" y="450" type="line" smooth="yes"/>
      <point x="556" y="450"/>
      <point x="560" y="443"/>
      <point x="557" y="437" type="curve" smooth="yes"/>
      <point x="402" y="218" type="line"/>
    </contour>
    <contour>
      <point x="267" y="185" type="line"/>
      <point x="292" y="287" type="line" smooth="yes"/>
      <point x="293" y="291"/>
      <point x="298" y="294"/>
      <point x="302" y="293" type="curve" smooth="yes"/>
      <point x="429" y="254" type="line"/>
      <point x="425" y="238" type="line"/>
      <point x="298" y="277" type="line" smooth="yes"/>
      <point x="293" y="279"/>
      <point x="309" y="288"/>
      <point x="308" y="283" type="curve" smooth="yes"/>
      <point x="283" y="181" type="line"/>
    </contour>
    <contour>
      <point x="547" y="398" type="line"/>
      <point x="487" y="435" type="line" smooth="yes"/>
      <point x="480" y="439"/>
      <point x="496" y="452"/>
      <point x="498" y="445" type="curve" smooth="yes"/>
      <point x="540" y="339" type="line" smooth="yes"/>
      <point x="543" y="331"/>
      <point x="524" y="329"/>
      <point x="525" y="337" type="curve" smooth="yes"/>
      <point x="542" y="443" type="line" smooth="yes"/>
      <point x="543" y="448"/>
      <point x="548" y="451"/>
      <point x="552" y="450" type="curve" smooth="yes"/>
      <point x="680" y="413" type="line"/>
      <point x="676" y="397" type="line"/>
      <point x="548" y="434" type="line" smooth="yes"/>
      <point x="543" y="436"/>
      <point x="559" y="445"/>
      <point x="558" y="441" type="curve" smooth="yes"/>
      <point x="541" y="335" type="line" smooth="yes"/>
      <point x="540" y="327"/>
      <point x="529" y="325"/>
      <point x="526" y="333" type="curve" smooth="yes"/>
      <point x="484" y="439" type="line" smooth="yes"/>
      <point x="481" y="446"/>
      <point x="489" y="453"/>
      <point x="495" y="449" type="curve" smooth="yes"/>
      <point x="555" y="412" type="line"/>
    </contour>
    <contour>
      <point x="597" y="248" type="line"/>
      <point x="482" y="277" type="line" smooth="yes"/>
      <point x="475" y="279"/>
      <point x="488" y="295"/>
      <point x="491" y="289" type="curve" smooth="yes"/>
      <point x="548" y="178" type="line"/>
      <point x="534" y="170" type="line"/>
      <point x="477" y="281" type="line" smooth="yes"/>
      <point x="474" y="287"/>
      <point x="479" y="294"/>
      <point x="486" y="293" type="curve" smooth="yes"/>
      <point x="601" y="264" type="line"/>
    </contour>
    <contour>
      <point x="550" y="239" type="line"/>
      <point x="436" y="277" type="line" smooth="yes"/>
      <point x="432" y="279"/>
      <point x="448" y="289"/>
      <point x="447" y="284" type="curve" smooth="yes"/>
      <point x="433" y="182" type="line"/>
      <point x="417" y="184" type="line"/>
      <point x="431" y="286" type="line" smooth="yes"/>
      <point x="432" y="291"/>
      <point x="437" y="294"/>
      <point x="442" y="293" type="curve" smooth="yes"/>
      <point x="556" y="255" type="line"/>
    </contour>
    <contour>
      <point x="464" y="241" type="line"/>
      <point x="433" y="280" type="line" smooth="yes"/>
      <point x="426" y="288"/>
      <point x="440" y="298"/>
      <point x="446" y="289" type="curve" smooth="yes"/>
      <point x="515" y="185" type="line"/>
      <point x="501" y="177" type="line"/>
      <point x="432" y="281" type="line" smooth="yes"/>
      <point x="427" y="289"/>
      <point x="439" y="298"/>
      <point x="445" y="290" type="curve" smooth="yes"/>
      <point x="476" y="251" type="line"/>
    </contour>
    <contour>
      <point x="467" y="111" type="line"/>
      <point x="389" y="218" type="line" smooth="yes"/>
      <point x="385" y="224"/>
      <point x="405" y="227"/>
      <point x="403" y="221" type="curve" smooth="yes"/>
      <point x="373" y="114" type="line"/>
      <point x="357" y="118" type="line"/>
      <point x="387" y="225" type="line" smooth="yes"/>
      <point x="389" y="232"/>
      <point x="398" y="233"/>
      <point x="401" y="228" type="curve" smooth="yes"/>
      <point x="479" y="121" type="line"/>
    </contour>
    <contour>
      <point x="41" y="418" type="line"/>
      <point x="51" y="414"/>
      <point x="64" y="411"/>
      <point x="78" y="411" type="curve"/>
      <point x="78" y="411"/>
      <point x="78" y="411"/>
      <point x="78" y="411" type="curve"/>
      <point x="127" y="411"/>
      <point x="181" y="434"/>
      <point x="208" y="474" type="curve" smooth="yes"/>
      <point x="208" y="474"/>
      <point x="208" y="474"/>
      <point x="209" y="474" type="curve" smooth="yes"/>
      <point x="229" y="502"/>
      <point x="214" y="518"/>
      <point x="161" y="521" type="curve" smooth="yes"/>
      <point x="153" y="521"/>
      <point x="150" y="531"/>
      <point x="156" y="536" type="curve" smooth="yes"/>
      <point x="303" y="638" type="line" smooth="yes"/>
      <point x="310" y="642"/>
      <point x="316" y="623"/>
      <point x="308" y="623" type="curve" smooth="yes"/>
      <point x="259" y="623"/>
      <point x="225" y="622"/>
      <point x="197" y="620" type="curve"/>
      <point x="195" y="636" type="line"/>
      <point x="225" y="638"/>
      <point x="259" y="639"/>
      <point x="308" y="639" type="curve" smooth="yes"/>
      <point x="316" y="639"/>
      <point x="319" y="629"/>
      <point x="313" y="624" type="curve" smooth="yes"/>
      <point x="166" y="522" type="line" smooth="yes"/>
      <point x="159" y="518"/>
      <point x="154" y="537"/>
      <point x="161" y="537" type="curve" smooth="yes"/>
      <point x="232" y="534"/>
      <point x="249" y="502"/>
      <point x="221" y="464" type="curve" smooth="yes"/>
      <point x="221" y="464"/>
      <point x="222" y="465"/>
      <point x="222" y="464" type="curve" smooth="yes"/>
      <point x="191" y="420"/>
      <point x="133" y="395"/>
      <point x="78" y="395" type="curve"/>
      <point x="78" y="395"/>
      <point x="78" y="395"/>
      <point x="78" y="395" type="curve"/>
      <point x="62" y="395"/>
      <point x="47" y="398"/>
      <point x="35" y="404" type="curve"/>
    </contour>
    <contour>
      <point x="170" y="513" type="line"/>
      <point x="188" y="629" type="line" smooth="yes"/>
      <point x="189" y="635"/>
      <point x="196" y="638"/>
      <point x="201" y="634" type="curve" smooth="yes"/>
      <point x="243" y="602" type="line"/>
      <point x="233" y="590" type="line"/>
      <point x="191" y="622" type="line" smooth="yes"/>
      <point x="186" y="625"/>
      <point x="205" y="633"/>
      <point x="204" y="627" type="curve" smooth="yes"/>
      <point x="186" y="511" type="line"/>
    </contour>
    <contour>
      <point x="24" y="311" type="line"/>
      <point x="30" y="411" type="line" smooth="yes"/>
      <point x="30" y="417"/>
      <point x="35" y="420"/>
      <point x="40" y="419" type="curve" smooth="yes"/>
      <point x="94" y="403" type="line"/>
      <point x="90" y="387" type="line"/>
      <point x="36" y="403" type="line" smooth="yes"/>
      <point x="31" y="405"/>
      <point x="46" y="416"/>
      <point x="46" y="411" type="curve" smooth="yes"/>
      <point x="40" y="311" type="line"/>
    </contour>
    <contour>
      <point x="127" y="433" type="line"/>
      <point x="153" y="531" type="line" smooth="yes"/>
      <point x="154" y="536"/>
      <point x="159" y="538"/>
      <point x="164" y="536" type="curve" smooth="yes"/>
      <point x="286" y="490" type="line"/>
      <point x="280" y="476" type="line"/>
      <point x="158" y="522" type="line" smooth="yes"/>
      <point x="154" y="523"/>
      <point x="170" y="532"/>
      <point x="169" y="527" type="curve" smooth="yes"/>
      <point x="143" y="429" type="line"/>
    </contour>
    <contour>
      <point x="260" y="527" type="line"/>
      <point x="301" y="634" type="line" smooth="yes"/>
      <point x="302" y="638"/>
      <point x="306" y="640"/>
      <point x="310" y="639" type="curve" smooth="yes"/>
      <point x="450" y="604" type="line"/>
      <point x="446" y="588" type="line"/>
      <point x="306" y="623" type="line" smooth="yes"/>
      <point x="302" y="624"/>
      <point x="317" y="632"/>
      <point x="315" y="628" type="curve" smooth="yes"/>
      <point x="274" y="521" type="line"/>
    </contour>
  </outline>
</glyph>
<glyph name="Ccedilla" format="2">
  <advance width="432"/>
  <unicode hex="00C7"/>
  <outline>
    <contour>
      <point x="440" y="609" type="line"/>
      <point x="423" y="617"/>
      <point x="398" y="622"/>
      <point x="374" y="622" type="curve"/>
      <point x="374" y="622"/>
      <point x="374" y="622"/>
      <point x="374" y="622" type="curve"/>
      <point x="263" y="622"/>
      <point x="136" y="541"/>
      <point x="52" y="421" type="curve" smooth="yes"/>
      <point x="52" y="421"/>
      <point x="52" y="421"/>
      <point x="52" y="421" type="curve" smooth="yes"/>
      <point x="-20" y="320"/>
      <point x="-21" y="249"/>
      <point x="53" y="234" type="curve" smooth="yes"/>
      <point x="53" y="234"/>
      <point x="52" y="234"/>
      <point x="53" y="234" type="curve" smooth="yes"/>
      <point x="82" y="228"/>
      <point x="132" y="232"/>
      <point x="174" y="245" type="curve"/>
      <point x="178" y="229" type="line"/>
      <point x="134" y="216"/>
      <point x="82" y="212"/>
      <point x="49" y="218" type="curve" smooth="yes"/>
      <point x="49" y="218"/>
      <point x="49" y="218"/>
      <point x="49" y="218" type="curve" smooth="yes"/>
      <point x="-35" y="235"/>
      <point x="-43" y="316"/>
      <point x="38" y="431" type="curve" smooth="yes"/>
      <point x="38" y="431"/>
      <point x="38" y="431"/>
      <point x="38" y="431" type="curve" smooth="yes"/>
      <point x="126" y="555"/>
      <point x="259" y="638"/>
      <point x="374" y="638" type="curve"/>
      <point x="374" y="638"/>
      <point x="374" y="638"/>
      <point x="374" y="638" type="curve"/>
      <point x="400" y="638"/>
      <point x="429" y="633"/>
      <point x="448" y="623" type="curve"/>
    </contour>
    <contour>
      <point x="561" y="573" type="line"/>
      <point x="442" y="608" type="line" smooth="yes"/>
      <point x="436" y="610"/>
      <point x="450" y="624"/>
      <point x="452" y="618" type="curve" smooth="yes"/>
      <point x="487" y="464" type="line"/>
      <point x="471" y="460" type="line"/>
      <point x="436" y="614" type="line" smooth="yes"/>
      <point x="435" y="620"/>
      <point x="440" y="625"/>
      <point x="446" y="624" type="curve" smooth="yes"/>
      <point x="565" y="589" type="line"/>
    </contour>
    <contour>
      <point x="330" y="242" type="line"/>
      <point x="177" y="229" type="line" smooth="yes"/>
      <point x="171" y="229"/>
      <point x="179" y="246"/>
      <point x="183" y="241" type="curve" smooth="yes"/>
      <point x="252" y="135" type="line"/>
      <point x="238" y="127" type="line"/>
      <point x="169" y="233" type="line" smooth="yes"/>
      <point x="166" y="238"/>
      <point x="169" y="244"/>
      <point x="175" y="245" type="curve" smooth="yes"/>
      <point x="328" y="258" type="line"/>
    </contour>
    <contour>
      <point x="-136" y="-46" type="line"/>
      <point x="-121" y="54" type="line" smooth="yes"/>
      <point x="-120" y="59"/>
      <point x="-116" y="62"/>
      <point x="-111" y="61" type="curve" smooth="yes"/>
      <point x="-63" y="50" type="line"/>
      <point x="-67" y="34" type="line"/>
      <point x="-115" y="45" type="line" smooth="yes"/>
      <point x="-119" y="46"/>
      <point x="-104" y="56"/>
      <point x="-105" y="52" type="curve" smooth="yes"/>
      <point x="-120" y="-48" type="line"/>
    </contour>
    <contour>
      <point x="57" y="221" type="line"/>
      <point x="22" y="178"/>
      <point x="30" y="164"/>
      <point x="39" y="151" type="curve" smooth="yes"/>
      <point x="40" y="150"/>
      <point x="39" y="152"/>
      <point x="39" y="151" type="curve" smooth="yes"/>
      <point x="52" y="138"/>
      <point x="66" y="122"/>
      <point x="42" y="91" type="curve" smooth="yes"/>
      <point x="42" y="91"/>
      <point x="43" y="91"/>
      <point x="43" y="91" type="curve" smooth="yes"/>
      <point x="8" y="42"/>
      <point x="-55" y="24"/>
      <point x="-116" y="45" type="curve"/>
      <point x="-110" y="61" type="line"/>
      <point x="-57" y="42"/>
      <point x="-2" y="56"/>
      <point x="29" y="101" type="curve" smooth="yes"/>
      <point x="29" y="101"/>
      <point x="30" y="101"/>
      <point x="30" y="101" type="curve" smooth="yes"/>
      <point x="46" y="123"/>
      <point x="36" y="131"/>
      <point x="27" y="141" type="curve" smooth="yes"/>
      <point x="27" y="141"/>
      <point x="27" y="141"/>
      <point x="27" y="141" type="curve" smooth="yes"/>
      <point x="15" y="158"/>
      <point x="2" y="178"/>
      <point x="45" y="231" type="curve"/>
    </contour>
    <contour>
      <point x="27" y="119" type="line"/>
      <point x="43" y="227" type="line" smooth="yes"/>
      <point x="44" y="235"/>
      <point x="54" y="237"/>
      <point x="58" y="230" type="curve" smooth="yes"/>
      <point x="128" y="111" type="line"/>
      <point x="114" y="103" type="line"/>
      <point x="44" y="222" type="line" smooth="yes"/>
      <point x="40" y="228"/>
      <point x="60" y="232"/>
      <point x="59" y="225" type="curve" smooth="yes"/>
      <point x="43" y="117" type="line"/>
    </contour>
  </outline>
</glyph>
<glyph name="ccedilla" format="2">
  <advance width="383"/>
  <unicode hex="00E7"/>
  <outline>
    <contour>
      <point x="346" y="539" type="line"/>
      <point x="331" y="547"/>
      <point x="312" y="554"/>
      <point x="288" y="554" type="curve"/>
      <point x="288" y="554"/>
      <point x="288" y="554"/>
      <point x="288" y="554" type="curve"/>
      <point x="197" y="554"/>
      <point x="89" y="486"/>
      <point x="19" y="386" type="curve" smooth="yes"/>
      <point x="19" y="386"/>
      <point x="19" y="386"/>
      <point x="19" y="386" type="curve" smooth="yes"/>
      <point x="-38" y="306"/>
      <point x="-40" y="250"/>
      <point x="12" y="235" type="curve" smooth="yes"/>
      <point x="12" y="235"/>
      <point x="12" y="235"/>
      <point x="13" y="235" type="curve" smooth="yes"/>
      <point x="41" y="225"/>
      <point x="86" y="230"/>
      <point x="128" y="244" type="curve"/>
      <point x="132" y="228" type="line"/>
      <point x="86" y="214"/>
      <point x="39" y="209"/>
      <point x="7" y="219" type="curve" smooth="yes"/>
      <point x="7" y="219"/>
      <point x="8" y="219"/>
      <point x="8" y="219" type="curve" smooth="yes"/>
      <point x="-54" y="238"/>
      <point x="-60" y="302"/>
      <point x="5" y="396" type="curve" smooth="yes"/>
      <point x="5" y="396"/>
      <point x="5" y="396"/>
      <point x="5" y="396" type="curve" smooth="yes"/>
      <point x="79" y="500"/>
      <point x="193" y="570"/>
      <point x="288" y="570" type="curve"/>
      <point x="288" y="570"/>
      <point x="288" y="570"/>
      <point x="288" y="570" type="curve"/>
      <point x="316" y="570"/>
      <point x="337" y="563"/>
      <point x="354" y="553" type="curve"/>
    </contour>
    <contour>
      <point x="466" y="502" type="line"/>
      <point x="348" y="538" type="line" smooth="yes"/>
      <point x="342" y="540"/>
      <point x="356" y="554"/>
      <point x="358" y="548" type="curve" smooth="yes"/>
      <point x="395" y="398" type="line"/>
      <point x="379" y="394" type="line"/>
      <point x="342" y="544" type="line" smooth="yes"/>
      <point x="341" y="550"/>
      <point x="346" y="555"/>
      <point x="352" y="554" type="curve" smooth="yes"/>
      <point x="470" y="518" type="line"/>
    </contour>
    <contour>
      <point x="282" y="238" type="line"/>
      <point x="131" y="228" type="line" smooth="yes"/>
      <point x="124" y="228"/>
      <point x="133" y="246"/>
      <point x="137" y="240" type="curve" smooth="yes"/>
      <point x="207" y="135" type="line"/>
      <point x="193" y="127" type="line"/>
      <point x="123" y="232" type="line" smooth="yes"/>
      <point x="120" y="237"/>
      <point x="123" y="244"/>
      <point x="129" y="244" type="curve" smooth="yes"/>
      <point x="280" y="254" type="line"/>
    </contour>
    <contour>
      <point x="-184" y="-53" type="line"/>
      <point x="-169" y="47" type="line" smooth="yes"/>
      <point x="-168" y="52"/>
      <point x="-164" y="55"/>
      <point x="-159" y="54" type="curve" smooth="yes"/>
      <point x="-111" y="43" type="line"/>
      <point x="-115" y="27" type="line"/>
      <point x="-163" y="38" type="line" smooth="yes"/>
      <point x="-167" y="39"/>
      <point x="-152" y="49"/>
      <point x="-153" y="45" type="curve" smooth="yes"/>
      <point x="-168" y="-55" type="line"/>
    </contour>
    <contour>
      <point x="16" y="222" type="line"/>
      <point x="-66" y="128"/>
      <point x="40" y="150"/>
      <point x="-5" y="84" type="curve" smooth="yes"/>
      <point x="-5" y="84"/>
      <point x="-5" y="84"/>
      <point x="-5" y="84" type="curve" smooth="yes"/>
      <point x="-40" y="34"/>
      <point x="-104" y="17"/>
      <point x="-164" y="38" type="curve"/>
      <point x="-158" y="54" type="line"/>
      <point x="-106" y="35"/>
      <point x="-50" y="49"/>
      <point x="-19" y="94" type="curve" smooth="yes"/>
      <point x="-19" y="94"/>
      <point x="-19" y="94"/>
      <point x="-19" y="94" type="curve" smooth="yes"/>
      <point x="21" y="150"/>
      <point x="-90" y="124"/>
      <point x="4" y="232" type="curve"/>
    </contour>
    <contour>
      <point x="-15" y="123" type="line"/>
      <point x="2" y="228" type="line" smooth="yes"/>
      <point x="3" y="236"/>
      <point x="14" y="238"/>
      <point x="17" y="231" type="curve" smooth="yes"/>
      <point x="79" y="111" type="line"/>
      <point x="65" y="103" type="line"/>
      <point x="3" y="223" type="line" smooth="yes"/>
      <point x="-1" y="230"/>
      <point x="19" y="233"/>
      <point x="18" y="226" type="curve" smooth="yes"/>
      <point x="1" y="121" type="line"/>
    </contour>
  </outline>
</glyph>
<glyph name="bullet" format="2">
  <advance width="402"/>
  <unicode hex="2022"/>
  <outline>
    <contour>
      <point x="173" y="448" type="line"/>
      <point x="158" y="401" type="line" smooth="yes"/>
      <point x="157" y="399"/>
      <point x="157" y="408"/>
      <point x="157" y="406" type="curve" smooth="yes"/>
      <point x="241" y="218" type="line"/>
      <point x="227" y="212" type="line"/>
      <point x="143" y="400" type="line" smooth="yes"/>
      <point x="142" y="402"/>
      <point x="142" y="404"/>
      <point x="142" y="405" type="curve" smooth="yes"/>
      <point x="157" y="452" type="line"/>
    </contour>
    <contour>
      <point x="-7" y="220" type="line"/>
      <point x="144" y="408" type="line" smooth="yes"/>
      <point x="145" y="409"/>
      <point x="147" y="411"/>
      <point x="149" y="411" type="curve" smooth="yes"/>
      <point x="399" y="458" type="line"/>
      <point x="401" y="442" type="line"/>
      <point x="151" y="395" type="line" smooth="yes"/>
      <point x="150" y="395"/>
      <point x="157" y="399"/>
      <point x="156" y="398" type="curve" smooth="yes"/>
      <point x="5" y="210" type="line"/>
    </contour>
  </outline>
</glyph>
<glyph name="four.superior" format="2">
  <advance width="316"/>
  <unicode hex="2074"/>
  <outline>
    <contour>
      <point x="156" y="420" type="line"/>
      <point x="311" y="638" type="line" smooth="yes"/>
      <point x="315" y="643"/>
      <point x="324" y="625"/>
      <point x="318" y="625" type="curve" smooth="yes"/>
      <point x="259" y="625" type="line" smooth="yes"/>
      <point x="257" y="625"/>
      <point x="266" y="628"/>
      <point x="264" y="627" type="curve" smooth="yes"/>
      <point x="73" y="470" type="line" smooth="yes"/>
      <point x="67" y="465"/>
      <point x="60" y="484"/>
      <point x="68" y="484" type="curve" smooth="yes"/>
      <point x="252" y="484" type="line"/>
      <point x="252" y="468" type="line"/>
      <point x="68" y="468" type="line" smooth="yes"/>
      <point x="60" y="468"/>
      <point x="57" y="477"/>
      <point x="63" y="482" type="curve" smooth="yes"/>
      <point x="254" y="639" type="line" smooth="yes"/>
      <point x="255" y="640"/>
      <point x="257" y="641"/>
      <point x="259" y="641" type="curve" smooth="yes"/>
      <point x="318" y="641" type="line" smooth="yes"/>
      <point x="324" y="641"/>
      <point x="328" y="634"/>
      <point x="325" y="628" type="curve" smooth="yes"/>
      <point x="170" y="410" type="line"/>
    </contour>
    <contour>
      <point x="34" y="376" type="line"/>
      <point x="60" y="478" type="line" smooth="yes"/>
      <point x="61" y="482"/>
      <point x="66" y="485"/>
      <point x="70" y="484" type="curve" smooth="yes"/>
      <point x="196" y="445" type="line"/>
      <point x="192" y="429" type="line"/>
      <point x="66" y="468" type="line" smooth="yes"/>
      <point x="61" y="470"/>
      <point x="77" y="478"/>
      <point x="76" y="474" type="curve" smooth="yes"/>
      <point x="50" y="372" type="line"/>
    </contour>
    <contour>
      <point x="315" y="589" type="line"/>
      <point x="255" y="626" type="line" smooth="yes"/>
      <point x="248" y="630"/>
      <point x="264" y="643"/>
      <point x="266" y="636" type="curve" smooth="yes"/>
      <point x="308" y="531" type="line" smooth="yes"/>
      <point x="311" y="523"/>
      <point x="292" y="521"/>
      <point x="293" y="529" type="curve" smooth="yes"/>
      <point x="310" y="634" type="line" smooth="yes"/>
      <point x="311" y="639"/>
      <point x="316" y="642"/>
      <point x="320" y="641" type="curve" smooth="yes"/>
      <point x="448" y="604" type="line"/>
      <point x="444" y="588" type="line"/>
      <point x="316" y="625" type="line" smooth="yes"/>
      <point x="311" y="627"/>
      <point x="327" y="636"/>
      <point x="326" y="632" type="curve" smooth="yes"/>
      <point x="309" y="527" type="line" smooth="yes"/>
      <point x="308" y="519"/>
      <point x="297" y="517"/>
      <point x="294" y="525" type="curve" smooth="yes"/>
      <point x="252" y="630" type="line" smooth="yes"/>
      <point x="249" y="637"/>
      <point x="257" y="644"/>
      <point x="263" y="640" type="curve" smooth="yes"/>
      <point x="323" y="603" type="line"/>
    </contour>
    <contour>
      <point x="365" y="439" type="line"/>
      <point x="250" y="468" type="line" smooth="yes"/>
      <point x="243" y="470"/>
      <point x="256" y="486"/>
      <point x="259" y="480" type="curve" smooth="yes"/>
      <point x="316" y="369" type="line"/>
      <point x="302" y="361" type="line"/>
      <point x="245" y="472" type="line" smooth="yes"/>
      <point x="242" y="478"/>
      <point x="247" y="485"/>
      <point x="254" y="484" type="curve" smooth="yes"/>
      <point x="369" y="455" type="line"/>
    </contour>
    <contour>
      <point x="319" y="431" type="line"/>
      <point x="205" y="468" type="line" smooth="yes"/>
      <point x="200" y="470"/>
      <point x="216" y="480"/>
      <point x="215" y="475" type="curve" smooth="yes"/>
      <point x="200" y="373" type="line"/>
      <point x="184" y="375" type="line"/>
      <point x="199" y="477" type="line" smooth="yes"/>
      <point x="200" y="482"/>
      <point x="205" y="485"/>
      <point x="209" y="484" type="curve" smooth="yes"/>
      <point x="323" y="447" type="line"/>
    </contour>
    <contour>
      <point x="232" y="432" type="line"/>
      <point x="201" y="471" type="line" smooth="yes"/>
      <point x="194" y="479"/>
      <point x="208" y="489"/>
      <point x="214" y="480" type="curve" smooth="yes"/>
      <point x="283" y="377" type="line"/>
      <point x="269" y="369" type="line"/>
      <point x="200" y="472" type="line" smooth="yes"/>
      <point x="195" y="480"/>
      <point x="207" y="489"/>
      <point x="213" y="481" type="curve" smooth="yes"/>
      <point x="244" y="442" type="line"/>
    </contour>
    <contour>
      <point x="235" y="302" type="line"/>
      <point x="157" y="410" type="line" smooth="yes"/>
      <point x="153" y="416"/>
      <point x="173" y="419"/>
      <point x="171" y="413" type="curve" smooth="yes"/>
      <point x="141" y="305" type="line"/>
      <point x="125" y="309" type="line"/>
      <point x="155" y="417" type="line" smooth="yes"/>
      <point x="157" y="424"/>
      <point x="166" y="425"/>
      <point x="169" y="420" type="curve" smooth="yes"/>
      <point x="247" y="312" type="line"/>
    </contour>
  </outline>
</glyph>
